<svg width="711" height="790" viewBox="0 0 711 790" fill="none" xmlns="http://www.w3.org/2000/svg">
<path fill-rule="evenodd" clip-rule="evenodd" d="M305.07 13.3974C336.01 -4.4658 374.13 -4.46579 405.07 13.3974L660.141 160.663C691.081 178.526 710.141 211.539 710.141 247.266V541.795C710.141 577.521 691.081 610.534 660.141 628.397L405.07 775.663C374.13 793.526 336.01 793.526 305.07 775.663L50 628.397C19.0599 610.534 0 577.521 0 541.795V247.266C0 211.539 19.0599 178.526 50 160.663L305.07 13.3974ZM392.57 160.181C369.365 146.783 340.775 146.783 317.57 160.181L170.868 244.88C147.663 258.277 133.368 283.037 133.368 309.832V479.229C133.368 506.024 147.663 530.783 170.868 544.181L317.57 628.88C340.775 642.277 369.365 642.277 392.57 628.88L539.272 544.181C562.477 530.783 576.772 506.024 576.772 479.229V309.832C576.772 283.037 562.478 258.277 539.272 244.88L392.57 160.181Z" fill="black" style="fill:black;fill-opacity:1;"/>
</svg>
