<svg width="711" height="601" viewBox="0 0 711 601" fill="none" xmlns="http://www.w3.org/2000/svg">
<path d="M691 0.000305176C691.037 0.0479318 698.012 9.03077 702.461 20.4739C707.145 32.522 710.07 45.3867 710.07 58.7357V353.265C710.07 388.991 691.01 422.004 660.07 439.867L405 587.133C389.691 595.972 372.623 600.434 355.538 600.526C355.335 600.035 355.136 599.541 354.94 599.047C354.806 599.383 354.671 599.718 354.532 600.052C337.447 599.96 320.38 595.498 305.07 586.659L50 439.394C19.06 421.531 6.51468e-05 388.518 0 352.791V58.262C0 44.9131 2.62248 31.9263 7.60938 20.0003C11.9886 9.52746 18.964 0.0492433 19 0.000305176C19.0311 0.075477 26.0689 17.0367 57.0703 33.3939L123 72C123 72 130.5 76 136.5 75C142.5 74 163.5 61 163.5 61C163.5 61 149.5 71 141.5 87.5C133.5 104 133.298 118 133.298 118V290.7C133.298 317.494 147.593 342.253 170.798 355.651L317.5 440.35C340.705 453.747 369.295 453.747 392.5 440.35L539.202 355.651C562.407 342.253 576.702 317.494 576.702 290.7V118C576.702 118 575.966 98.5 566.5 83.5C555 65.2777 546.5 61 546.5 61L568.357 72C568.357 72 574.5 75.1435 577 75C580.899 74.7762 586.953 72 586.953 72L653 33.8675C687.41 14.0522 690.982 0.0732649 691 0.000305176Z" fill="black" style="fill:black;fill-opacity:1;"/>
</svg>
